<?xml version="1.0" encoding="utf-8"?>
<!-- Generator: Adobe Illustrator 21.0.0, SVG Export Plug-In . SVG Version: 6.00 Build 0)  -->
<svg version="1.1" id="圖層_1" xmlns="http://www.w3.org/2000/svg" xmlns:xlink="http://www.w3.org/1999/xlink" x="0px" y="0px"
	 viewBox="0 0 31 31" style="enable-background:new 0 0 31 31;" xml:space="preserve">
<style type="text/css">
	.st0{fill:#040000;}
</style>
<g>
	<path class="st0" d="M15.5,31C7,31,0,24,0,15.5S7,0,15.5,0S31,7,31,15.5S24,31,15.5,31z M15.5,1C7.5,1,1,7.5,1,15.5S7.5,30,15.5,30
		S30,23.5,30,15.5S23.5,1,15.5,1z"/>
</g>
<path class="st0" d="M23.1,18.7c0.2-0.1,0.5,0,0.6,0.2c0.1,0.2,0,0.5-0.2,0.6L16,23c-0.1,0.1-0.2,0.1-0.3,0l-7.8-2.2
	c-0.1,0-0.2-0.1-0.3-0.2C7.3,20,7.1,19.5,7,19.1c-0.1-0.5,0.1-1,0.5-1.5c-0.3-0.5-0.4-0.9-0.5-1.3c-0.1-0.5,0.1-1,0.5-1.5
	c-0.3-0.5-0.4-0.9-0.5-1.3C7,13,7.1,12.5,7.5,12c0.1-0.1,0.2-0.1,0.3-0.2c0.1-0.1,0.3-0.2,0.4-0.2l7.5-3.5C15.9,8,16.1,8,16.1,8
	l7.8,2.2c0.2,0.1,0,0.3-0.3,0.6c-0.1,0.1-0.3,0.2-0.4,0.3l-7.5,3.5c-0.2,0.1-0.4,0.1-0.5,0.1l-7-2c-0.2,0.3-0.3,0.5-0.2,0.8
	c0,0.3,0.2,0.6,0.4,1l7.4,2.1l7.4-3.4c0.2-0.1,0.5,0,0.6,0.2c0.1,0.2,0,0.5-0.2,0.6L16,17.4c-0.1,0-0.2,0.1-0.3,0l-7.4-2.1
	c-0.2,0.3-0.3,0.6-0.3,0.9c0,0.3,0.2,0.6,0.4,1l7.4,2.1l7.4-3.4c0.2-0.1,0.5,0,0.6,0.2c0.1,0.2,0,0.5-0.2,0.6L16,20.2
	c-0.1,0-0.2,0-0.3,0l-7.4-2.1C8,18.4,7.9,18.7,7.9,19c0,0.3,0.2,0.6,0.4,1l7.4,2.1L23.1,18.7z M16.7,11.8l2.7-1.2l-3.5-1l-2.7,1.2
	L16.7,11.8z"/>
</svg>
