<?xml version="1.0" encoding="utf-8"?>
<!-- Generator: Adobe Illustrator 21.0.0, SVG Export Plug-In . SVG Version: 6.00 Build 0)  -->
<svg version="1.1" id="圖層_1" xmlns="http://www.w3.org/2000/svg" xmlns:xlink="http://www.w3.org/1999/xlink" x="0px" y="0px"
	 viewBox="0 0 31 31" style="enable-background:new 0 0 31 31;" xml:space="preserve">
<style type="text/css">
	.st0{fill:#040000;}
</style>
<path class="st0" d="M15.8,21.4V10.4C18.2,9.2,19.2,9,22.7,9v11.1C19.4,20.1,18.4,20.1,15.8,21.4L15.8,21.4z M15.2,21.4L15.2,21.4
	c-2.3-1.2-3.3-1.3-5.8-1.3l-1.1,0V9c3.4,0,4.5,0.2,6.9,1.4V21.4z M24.5,10.3h-0.9v1.1h0.4v9.9H17c1.8-0.8,2.9-0.8,5.9-0.8
	c0.1,0,0.1,0,0.2-0.1c0-0.1,0.1-0.1,0.1-0.2V8.8c0-0.1-0.1-0.3-0.3-0.3c-3.8-0.1-4.9,0.2-7.4,1.5c-2.6-1.3-3.7-1.5-7.4-1.5
	c-0.2,0-0.3,0.1-0.3,0.3v11.6c0,0.1,0,0.1,0.1,0.2c0,0,0.1,0.1,0.2,0.1c2.9,0,4.1,0,5.9,0.8H7.1v-9.9h0.4v-1.1H6.5
	c-0.3,0-0.5,0.2-0.5,0.6V22c0,0.3,0.2,0.5,0.5,0.5h17.9c0.3,0,0.5-0.3,0.5-0.5V10.9C25,10.6,24.8,10.3,24.5,10.3z"/>
<path class="st0" d="M17.1,12.6C17.2,12.6,17.2,12.5,17.1,12.6c1.5-0.6,2.3-0.9,4.3-0.8c0.1,0,0.3-0.1,0.3-0.2
	c0-0.1-0.1-0.3-0.2-0.3c-2,0-2.9,0.2-4.4,0.8c-0.1,0-0.2,0.2-0.1,0.3C17,12.5,17,12.6,17.1,12.6z"/>
<path class="st0" d="M17.1,14.5C17.2,14.5,17.2,14.5,17.1,14.5c1.5-0.6,2.3-0.9,4.3-0.8c0.1,0,0.3-0.1,0.3-0.3
	c0-0.1-0.1-0.3-0.2-0.3c-2,0-2.9,0.2-4.4,0.8c-0.1,0-0.2,0.2-0.1,0.3C17,14.4,17,14.5,17.1,14.5z"/>
<path class="st0" d="M17.1,16.5C17.2,16.5,17.2,16.5,17.1,16.5c1.5-0.6,2.3-0.8,4.3-0.8c0.1,0,0.3-0.1,0.3-0.3
	c0-0.1-0.1-0.3-0.2-0.3c-2,0-2.9,0.2-4.4,0.8c-0.1,0.1-0.2,0.2-0.1,0.3C17,16.4,17,16.5,17.1,16.5z"/>
<path class="st0" d="M21.7,17.4c0-0.1-0.1-0.3-0.2-0.3c-2,0-2.9,0.2-4.4,0.8c-0.1,0.1-0.2,0.2-0.1,0.3c0,0.1,0.1,0.2,0.2,0.2
	c0,0,0.1,0,0.1,0c1.4-0.6,2.3-0.8,4.3-0.8C21.6,17.6,21.7,17.5,21.7,17.4z"/>
<path class="st0" d="M9.5,11.7c2,0,2.9,0.2,4.3,0.8c0,0,0.1,0,0.1,0c0.1,0,0.2-0.1,0.2-0.2c0.1-0.1,0-0.3-0.1-0.3
	c-1.5-0.6-2.4-0.9-4.4-0.8c-0.1,0-0.2,0.1-0.2,0.3C9.3,11.6,9.4,11.7,9.5,11.7z"/>
<path class="st0" d="M9.5,13.7c2,0,2.9,0.2,4.3,0.8c0,0,0.1,0,0.1,0c0.1,0,0.2-0.1,0.2-0.1c0.1-0.1,0-0.3-0.1-0.3
	c-1.5-0.6-2.4-0.9-4.4-0.8c-0.1,0-0.2,0.1-0.2,0.3C9.3,13.6,9.4,13.7,9.5,13.7z"/>
<path class="st0" d="M9.5,15.6c2,0,2.9,0.2,4.3,0.8c0,0,0.1,0,0.1,0c0.1,0,0.2-0.1,0.2-0.2c0.1-0.1,0-0.3-0.1-0.3
	c-1.5-0.6-2.4-0.9-4.4-0.8c-0.1,0-0.2,0.1-0.2,0.3C9.3,15.5,9.4,15.6,9.5,15.6z"/>
<path class="st0" d="M9.5,17.6c2,0,2.9,0.2,4.3,0.8c0,0,0.1,0,0.1,0c0.1,0,0.2-0.1,0.2-0.2c0.1-0.1,0-0.3-0.1-0.3
	c-1.5-0.6-2.4-0.9-4.4-0.8c-0.1,0-0.2,0.1-0.2,0.3C9.3,17.5,9.4,17.6,9.5,17.6z"/>
<g>
	<path class="st0" d="M15.5,31C7,31,0,24,0,15.5S7,0,15.5,0S31,7,31,15.5S24,31,15.5,31z M15.5,1C7.5,1,1,7.5,1,15.5S7.5,30,15.5,30
		S30,23.5,30,15.5S23.5,1,15.5,1z"/>
</g>
</svg>
