<?xml version="1.0" encoding="utf-8"?>
<!-- Generator: Adobe Illustrator 21.0.0, SVG Export Plug-In . SVG Version: 6.00 Build 0)  -->
<svg version="1.1" id="圖層_1" xmlns="http://www.w3.org/2000/svg" xmlns:xlink="http://www.w3.org/1999/xlink" x="0px" y="0px"
	 viewBox="0 0 130 130" style="enable-background:new 0 0 130 130;" xml:space="preserve">
<path d="M0,65c0,35.9,29.1,65,65,65s65-29.1,65-65S100.9,0,65,0S0,29.1,0,65z M1,65C1,29.6,29.6,1,65,1s64,28.6,64,64
	s-28.7,64-64,64S1,100.3,1,65z"/>
<path d="M86.3,67.9L66.1,89.2l-0.5,0.6C65.4,89.9,65.2,90,65,90h0c-0.2,0-0.4-0.1-0.6-0.3l-0.5-0.6L43.7,67.9
	c-0.3-0.3-0.3-0.9,0-1.2c0.3-0.3,0.8-0.3,1.2,0l19,20V40h2.3v46.7l19-20c0.3-0.3,0.8-0.3,1.2,0c0.2,0.2,0.2,0.4,0.2,0.6
	C86.5,67.5,86.4,67.7,86.3,67.9z M66.1,89.2V90H65c0.2,0,0.4-0.1,0.6-0.3L66.1,89.2z M65,90h-1.1v-0.8l0.5,0.6
	C64.6,89.9,64.8,90,65,90z"/>
</svg>
