<?xml version="1.0" encoding="utf-8"?>
<!-- Generator: Adobe Illustrator 21.0.0, SVG Export Plug-In . SVG Version: 6.00 Build 0)  -->
<svg version="1.1" id="圖層_1" xmlns="http://www.w3.org/2000/svg" xmlns:xlink="http://www.w3.org/1999/xlink" x="0px" y="0px"
	 viewBox="0 0 207 53" style="enable-background:new 0 0 207 53;" xml:space="preserve">
<style type="text/css">
	.st0{fill:#FFFFFF;stroke:#FFFFFF;stroke-linecap:round;stroke-linejoin:round;stroke-miterlimit:10;}
	.st1{fill:#F96D11;}
</style>
<path class="st0" d="M25.1,12.8c-1.2-1.7-5.6-2.4-7.3-2.4C16,10.4,1,10.7,1,10.7L1.4,41l8.1,0.1l0.2-9.9c0,0,14.1,0.8,15.5-2.1
	C25.2,28.9,27,15.5,25.1,12.8z M17.9,24.1c-0.2,0.5-8.1,0.3-8.1,0.3s-0.2-0.9-0.2-5.9c0,0,7.2-0.6,8.1,0.4
	C18.1,19.3,18.1,23.6,17.9,24.1z"/>
<path class="st0" d="M43.2,10c-7,0-12.7,4.4-12.7,9.9v12.3c0,5.5,5.7,9.9,12.7,9.9c7,0,12.7-4.4,12.7-9.9V19.9
	C55.9,14.5,50.2,10,43.2,10z M47,29.6c0,1.9-2.1,3.5-4.6,3.5c-2.6,0-4.7-1.6-4.7-3.5v-7.8c0-1.9,2.1-3.5,4.7-3.5
	c2.6,0,4.6,1.6,4.6,3.5V29.6z"/>
<polygon class="st0" points="68.5,11.4 77.4,11.4 77.4,34.1 90.2,34.1 90.2,42.4 68.7,42.4 "/>
<polygon class="st0" points="83.9,11.4 93.7,11.4 98.3,23.5 102.7,11.5 113,11.5 102.1,29.4 102.1,41.9 93.9,41.9 93.7,29.4 "/>
<path class="st0" d="M144,33.9l-0.4-10.3l8.4,0.1c0,0-0.2,12.8,0,14.1c0.2,1.3-3.8,4.1-3.8,4.1h-16c-3.6,0-5.7-4.8-5.7-4.8
	s0.2-12.7,0-18.4c-0.2-5.7,4.8-7.3,4.8-7.3h20.5v8.4h-17.4v14.2H144z"/>
<polygon class="st0" points="159.1,11.4 167.5,11.4 167.5,42.2 159.4,42.2 "/>
<polygon class="st0" points="183.3,41.1 175.2,41.1 175.2,10.7 186.6,10.7 190.7,29.7 194.3,10.5 205.5,10.5 205.5,40.8 197.2,40.8 
	197.2,23.7 193.4,41 187.4,41.1 183.8,23.9 "/>
<polygon class="st1" points="186.6,0 194.8,0 190.6,18.9 "/>
<polygon class="st1" points="0.3,43.8 206.8,43.8 206.8,47.8 0,47.8 "/>
<rect x="0.7" y="49.4" class="st1" width="206.3" height="2.3"/>
<polygon class="st1" points="0.5,51.8 206.8,51.8 206.8,52.8 0.5,53 "/>
</svg>
