<?xml version="1.0" encoding="utf-8"?>
<!-- Generator: Adobe Illustrator 21.0.0, SVG Export Plug-In . SVG Version: 6.00 Build 0)  -->
<svg version="1.1" id="圖層_1" xmlns="http://www.w3.org/2000/svg" xmlns:xlink="http://www.w3.org/1999/xlink" x="0px" y="0px"
	 viewBox="0 0 218 57" style="enable-background:new 0 0 218 57;" xml:space="preserve">
<style type="text/css">
	.st0{stroke:#000000;stroke-linecap:round;stroke-linejoin:round;stroke-miterlimit:10;}
	.st1{fill:#FFFFFF;stroke:#000000;stroke-linecap:round;stroke-linejoin:round;stroke-miterlimit:10;}
	.st2{fill:#F96D11;}
</style>
<path class="st0" d="M1.5,44.3l-0.4-32c0,0,15.8-0.3,17.7-0.3c1.8,0,6.5,0.8,7.7,2.5c2,2.9,0.1,17,0,17.2c-1.4,3-16.3,2.2-16.3,2.2
	L10,44.4L1.5,44.3z"/>
<path class="st1" d="M10.1,20.5c0,5.2,0.2,6.2,0.2,6.2s8.3,0.3,8.5-0.3c0.2-0.5,0.2-5.1-0.2-5.5C17.7,19.9,10.1,20.5,10.1,20.5z"/>
<path class="st0" d="M58.9,35c0,5.8-6,10.5-13.4,10.5c-7.4,0-13.4-4.7-13.4-10.5V22c0-5.8,6-10.5,13.4-10.5
	c7.4,0,13.4,4.7,13.4,10.5V35z"/>
<path class="st1" d="M49.5,32.3c0,2.1-2.2,3.7-4.9,3.7c-2.7,0-4.9-1.7-4.9-3.7V24c0-2.1,2.2-3.7,4.9-3.7c2.7,0,4.9,1.7,4.9,3.7V32.3
	z"/>
<polygon class="st0" points="72.1,12 81.6,12 81.6,36 95,36 95,44.8 72.3,44.8 "/>
<polygon class="st0" points="89.3,12 99.7,12 104.6,24.8 109.1,12.1 120,12.1 108.6,31 108.6,44.3 99.9,44.3 99.7,31 "/>
<path class="st0" d="M152.6,35.9L152.3,25l8.9,0.1c0,0-0.2,13.5,0,14.9c0.2,1.4-4,4.3-4,4.3h-16.9c-3.8,0-6-5.1-6-5.1
	s0.2-13.4,0-19.4c-0.2-6.1,5.1-7.7,5.1-7.7h21.6v8.8h-18.3v15H152.6z"/>
<polygon class="st0" points="168.6,12 177.4,12 177.4,44.5 168.9,44.5 "/>
<polygon class="st0" points="193,44.4 184.5,44.4 184.5,12.3 196.5,12.3 200.8,32.4 204.6,12.1 216.4,12.1 216.4,44.1 207.7,44.1 
	207.7,26.1 203.7,44.3 197.4,44.4 193.6,26.2 "/>
<polygon class="st2" points="196.5,0 205.2,0 200.7,20 "/>
<polygon class="st2" points="0.4,46.3 217.8,46.3 217.8,50.5 0,50.5 "/>
<rect x="0.7" y="52.2" class="st2" width="217.3" height="2.4"/>
<polygon class="st2" points="0.5,55.7 217.8,55.7 217.8,56.8 0.5,57 "/>
</svg>
